<?xml version="1.0" encoding="UTF-8" ?>
<!DOCTYPE svg PUBLIC "-//W3C//DTD SVG 1.1//EN" "http://www.w3.org/Graphics/SVG/1.1/DTD/svg11.dtd">
<svg width="173pt" height="173pt" viewBox="0 0 173 173" version="1.1" xmlns="http://www.w3.org/2000/svg">
<path fill="#ffffff" d=" M 0.00 0.00 L 173.00 0.00 L 173.00 173.00 L 0.00 173.00 L 0.00 0.00 Z" />
<path fill="#184e92" d=" M 47.57 7.63 C 49.95 5.92 52.98 6.04 55.77 5.90 C 54.91 11.97 48.77 16.17 42.79 14.79 C 43.75 12.06 44.91 9.13 47.57 7.63 Z" />
<path fill="#184e92" d=" M 111.19 5.88 C 116.78 5.15 122.56 8.26 123.96 13.93 C 124.51 14.78 125.07 15.63 125.63 16.48 C 123.97 13.83 120.76 15.27 118.33 14.42 C 114.42 13.34 112.03 9.66 111.19 5.88 Z" />
<path fill="#184e92" d=" M 34.49 18.67 C 32.92 14.65 33.17 10.00 36.52 6.97 C 38.43 9.94 39.35 13.63 37.68 16.95 C 38.14 17.50 38.61 18.04 39.08 18.57 C 39.60 16.99 40.69 15.98 42.35 15.55 L 40.36 17.08 C 40.91 17.46 41.46 17.84 42.02 18.21 C 45.68 15.85 49.82 18.23 52.34 21.07 C 50.37 21.88 48.32 23.13 46.10 22.68 C 43.32 22.13 41.30 19.96 38.88 18.66 C 35.81 22.19 32.55 25.54 29.48 29.07 C 30.09 29.55 30.71 30.03 31.33 30.50 L 31.13 28.98 C 34.57 27.83 38.37 27.90 41.17 30.44 C 39.27 31.77 37.34 33.43 34.89 33.51 C 32.97 33.47 31.16 32.71 29.31 32.30 C 29.21 31.82 29.03 30.87 28.93 30.39 C 23.75 37.99 20.20 46.70 18.79 55.79 C 17.72 54.03 17.75 51.95 18.36 50.03 C 20.12 43.71 22.54 37.47 26.35 32.08 C 25.90 31.97 24.99 31.76 24.54 31.65 C 21.50 28.31 20.99 23.55 23.07 19.55 C 24.29 20.87 25.80 22.07 26.42 23.81 C 27.05 26.04 26.86 28.41 27.56 30.62 C 29.70 26.14 33.41 22.74 36.84 19.26 C 36.25 19.11 35.08 18.82 34.49 18.67 Z" />
<path fill="#184e92" d=" M 131.12 19.77 C 127.85 16.11 127.45 10.75 130.58 6.86 C 134.17 10.38 134.35 15.95 131.12 19.77 Z" />
<path fill="#184e92" d=" M 29.30 12.76 C 32.95 16.18 33.44 21.86 30.17 25.74 C 26.78 22.14 26.38 16.76 29.30 12.76 Z" />
<path fill="#184e92" d=" M 137.44 12.75 C 140.73 16.53 140.33 22.29 136.58 25.61 C 135.65 23.50 134.31 21.36 134.50 18.96 C 134.69 16.59 136.20 14.67 137.44 12.75 Z" />
<path fill="#184e92" d=" M 115.11 20.62 C 117.91 16.93 123.18 16.28 126.96 18.87 C 124.33 22.33 118.19 24.54 115.11 20.62 Z" />
<path fill="#184e92" d=" M 126.64 17.87 C 127.05 17.52 127.46 17.17 127.88 16.82 C 131.79 21.36 136.89 25.03 139.44 30.61 C 140.18 28.29 139.89 25.78 140.64 23.46 C 141.39 21.91 142.70 20.75 143.84 19.49 C 146.08 23.47 145.47 28.25 142.45 31.63 C 142.00 31.74 141.10 31.95 140.65 32.06 C 149.29 44.79 152.26 60.93 150.18 76.06 C 147.89 93.45 138.04 109.72 123.60 119.71 C 114.49 126.10 103.62 129.89 92.53 130.65 C 92.51 129.97 92.48 128.59 92.46 127.91 C 106.73 126.95 120.51 120.79 130.65 110.71 C 143.38 98.13 150.20 79.94 149.03 62.11 C 148.76 58.75 148.21 55.42 147.92 52.07 C 147.37 53.15 146.87 54.24 146.37 55.34 C 141.94 55.60 138.32 52.77 136.71 48.80 C 140.29 47.98 144.76 48.76 146.22 52.61 C 146.61 51.96 147.00 51.30 147.38 50.64 C 145.17 43.22 142.19 35.97 137.59 29.69 C 137.74 30.56 138.03 32.32 138.18 33.20 L 137.87 31.62 C 134.02 34.64 128.85 33.52 125.74 30.10 C 128.78 27.96 132.49 27.84 135.95 28.96 L 135.65 30.48 C 136.29 30.02 136.92 29.54 137.55 29.06 C 134.07 25.18 130.74 21.12 126.64 17.87 Z" />
<path fill="#184e92" d=" M 34.12 24.32 C 38.02 21.73 43.35 21.77 46.48 25.53 C 42.68 28.34 37.03 28.49 34.12 24.32 Z" />
<path fill="#184e92" d=" M 120.60 25.57 C 123.57 21.50 129.52 21.36 133.01 24.86 C 129.51 28.05 124.44 28.28 120.60 25.57 Z" />
<path fill="#184e92" d=" M 17.77 27.07 C 22.03 29.55 23.90 34.90 21.73 39.42 C 17.29 36.98 15.96 31.59 17.77 27.07 Z" />
<path fill="#184e92" d=" M 145.33 39.35 C 143.06 34.85 144.99 29.51 149.20 26.99 C 151.10 31.53 149.64 36.80 145.33 39.35 Z" />
<path fill="#933132" d=" M 67.71 34.83 C 69.04 32.85 71.47 34.41 73.10 35.06 C 78.02 37.50 82.98 39.86 87.93 42.26 C 89.22 42.98 91.42 44.07 90.73 45.90 C 90.65 47.80 88.43 47.74 87.14 48.39 C 86.62 49.14 86.10 49.89 85.59 50.64 C 86.41 51.45 87.24 52.27 88.06 53.08 C 87.17 52.93 85.40 52.61 84.51 52.46 C 84.11 53.66 83.76 54.88 83.46 56.11 C 85.56 58.58 89.02 59.06 91.80 60.46 C 97.10 63.38 102.52 66.17 108.32 67.98 C 114.18 72.33 121.63 73.92 127.53 78.19 C 129.90 80.84 126.45 85.30 123.30 83.72 C 116.57 80.83 110.44 76.61 103.48 74.21 C 96.70 69.72 89.20 66.34 81.83 62.95 C 79.58 61.68 78.93 64.69 77.81 65.96 C 78.44 66.47 79.72 67.49 80.35 68.01 C 78.49 67.78 76.83 68.17 75.82 69.80 C 77.38 71.79 77.41 75.82 74.02 75.56 C 68.28 73.33 62.95 70.17 57.31 67.70 C 55.55 66.80 52.54 65.67 53.40 63.13 C 53.86 61.43 55.93 61.46 57.27 60.91 C 57.58 60.38 58.19 59.33 58.50 58.80 C 57.91 58.20 56.72 56.99 56.13 56.39 C 56.96 56.53 58.61 56.80 59.44 56.94 C 61.57 52.41 63.86 47.96 66.11 43.49 C 65.36 42.66 64.62 41.82 63.87 40.99 C 64.65 41.19 66.22 41.57 67.00 41.77 C 67.25 41.15 67.77 39.93 68.03 39.31 C 67.68 37.86 66.22 36.10 67.71 34.83 Z" />
<path fill="#184e92" d=" M 24.63 39.05 C 26.95 35.29 31.74 33.22 35.87 35.42 C 36.48 37.02 34.71 37.94 33.72 38.83 C 31.05 40.83 27.55 39.91 24.63 39.05 Z" />
<path fill="#184e92" d=" M 130.19 35.75 C 134.47 33.34 139.91 34.60 142.39 38.92 C 140.33 39.46 138.22 40.36 136.06 39.92 C 133.57 39.47 131.88 37.44 130.19 35.75 Z" />
<path fill="#184e92" d=" M 13.19 35.53 C 18.08 36.85 20.18 42.20 18.96 46.85 C 14.27 45.24 12.17 40.20 13.19 35.53 Z" />
<path fill="#184e92" d=" M 147.92 46.78 C 146.91 42.05 148.97 37.20 153.44 35.14 C 155.22 39.83 152.77 45.28 147.92 46.78 Z" />
<path fill="#184e92" d=" M 133.94 42.28 C 138.36 39.76 143.81 42.39 145.47 46.98 C 140.91 48.19 136.27 46.44 133.94 42.28 Z" />
<path fill="#184e92" d=" M 25.41 42.39 C 27.75 40.97 30.55 41.62 33.09 41.93 C 31.05 46.31 26.20 48.62 21.55 46.92 C 22.63 45.26 23.56 43.31 25.41 42.39 Z" />
<path fill="#184e92" d=" M 150.32 54.82 C 149.23 49.97 152.17 45.17 156.94 43.88 C 157.92 48.78 154.88 53.21 150.32 54.82 Z" />
<path fill="#184e92" d=" M 9.80 44.18 C 11.88 44.86 14.17 45.61 15.36 47.61 C 17.03 50.70 17.38 54.33 19.36 57.31 C 17.37 54.91 14.34 53.96 12.09 51.92 C 10.09 49.87 10.08 46.84 9.80 44.18 Z" />
<path fill="#184e92" d=" M 19.43 55.16 C 20.73 50.45 25.49 47.51 30.30 48.71 C 29.20 50.68 28.25 52.95 26.22 54.14 C 24.20 55.43 21.70 55.12 19.43 55.16 Z" />
<path fill="#184e92" d=" M 7.96 52.96 C 12.73 53.86 16.10 57.94 15.96 62.84 C 10.98 62.39 7.40 57.89 7.96 52.96 Z" />
<path fill="#184e92" d=" M 151.14 62.75 C 150.87 57.81 154.41 53.72 159.16 52.84 C 159.53 57.74 156.11 62.21 151.14 62.75 Z" />
<path fill="#184e92" d=" M 16.95 55.40 C 17.48 56.03 18.00 56.67 18.51 57.31 C 16.60 71.63 19.47 86.67 27.16 98.97 C 35.39 112.78 49.45 123.07 65.18 126.49 C 68.26 127.19 71.41 127.45 74.52 128.02 C 74.64 128.67 74.89 129.97 75.01 130.62 C 57.72 129.83 41.12 121.02 30.38 107.53 C 18.59 93.13 14.21 73.65 16.95 55.40 Z" />
<path fill="#184e92" d=" M 18.40 63.55 C 19.26 58.78 23.43 55.12 28.40 55.73 C 27.45 60.43 23.39 64.12 18.40 63.55 Z" />
<path fill="#184e92" d=" M 138.63 55.62 C 143.54 55.13 147.75 58.66 148.66 63.40 C 143.66 64.02 139.49 60.40 138.63 55.62 Z" />
<path fill="#184e92" d=" M 6.65 62.24 C 11.52 62.36 15.63 66.03 15.85 70.99 C 10.82 71.19 6.98 67.08 6.65 62.24 Z" />
<path fill="#184e92" d=" M 18.62 72.04 C 18.79 67.16 22.58 62.93 27.60 63.14 C 27.02 67.81 23.60 71.99 18.62 72.04 Z" />
<path fill="#184e92" d=" M 139.92 62.78 C 144.69 63.37 148.34 67.21 148.39 72.08 C 143.60 71.64 139.42 67.86 139.92 62.78 Z" />
<path fill="#184e92" d=" M 151.37 71.19 C 151.16 66.17 155.40 62.15 160.35 62.24 C 160.08 67.15 156.08 70.66 151.37 71.19 Z" />
<path fill="#184e92" d=" M 20.12 80.59 C 19.47 75.72 22.56 71.21 27.39 70.23 C 28.04 75.10 24.88 79.52 20.12 80.59 Z" />
<path fill="#184e92" d=" M 139.61 70.12 C 144.46 71.10 147.49 75.55 147.15 80.39 C 142.23 79.60 139.00 75.05 139.61 70.12 Z" />
<path fill="#184e92" d=" M 6.60 71.60 C 11.53 71.05 16.04 74.25 16.88 79.18 C 11.93 79.74 7.59 76.41 6.60 71.60 Z" />
<path fill="#184e92" d=" M 150.19 79.23 C 150.95 74.28 155.46 70.80 160.46 71.56 C 159.42 76.36 155.07 79.50 150.19 79.23 Z" />
<path fill="#184e92" d=" M 22.62 88.69 C 21.34 84.50 23.68 78.09 28.64 78.16 C 29.71 82.69 26.80 87.05 22.62 88.69 Z" />
<path fill="#184e92" d=" M 138.44 78.24 C 139.62 77.20 140.76 78.57 141.75 79.20 C 144.56 81.43 145.11 85.25 144.57 88.60 C 140.43 87.05 137.32 82.77 138.44 78.24 Z" />
<path fill="#184e92" d=" M 7.70 80.88 C 9.95 80.76 12.40 80.30 14.45 81.54 C 16.73 82.59 17.79 85.01 18.94 87.07 C 16.75 87.10 14.37 87.53 12.33 86.44 C 10.01 85.39 8.92 82.95 7.70 80.88 Z" />
<path fill="#184e92" d=" M 148.26 86.98 C 149.64 82.24 154.53 79.41 159.33 80.82 C 158.16 82.75 157.18 85.06 155.05 86.13 C 153.02 87.42 150.52 87.06 148.26 86.98 Z" />
<path fill="#184e92" d=" M 26.14 96.41 C 24.39 91.91 26.03 86.48 30.66 84.56 C 32.19 89.13 30.43 94.14 26.14 96.41 Z" />
<path fill="#933132" d=" M 48.68 85.63 C 57.71 85.29 66.75 85.55 75.79 85.48 C 75.88 86.55 75.99 87.63 76.09 88.70 C 77.38 88.78 78.67 88.86 79.95 88.94 C 79.97 90.87 80.07 92.83 79.73 94.75 C 68.13 95.30 56.48 94.93 44.86 94.92 C 44.80 92.94 44.79 90.96 44.85 88.98 C 46.17 88.87 47.48 88.75 48.79 88.63 C 48.76 87.88 48.70 86.38 48.68 85.63 Z" />
<path fill="#184e92" d=" M 136.26 85.27 C 137.84 84.29 138.93 86.10 139.89 87.11 C 142.07 89.73 142.08 93.38 140.59 96.34 C 137.05 93.87 134.88 89.57 136.26 85.27 Z" />
<path fill="#184e92" d=" M 10.46 89.80 C 14.93 87.97 19.87 90.22 21.86 94.50 C 17.62 96.17 11.66 94.65 10.46 89.80 Z" />
<path fill="#184e92" d=" M 145.27 94.43 C 147.26 89.94 152.53 87.85 157.06 89.77 C 155.66 91.64 154.33 93.90 151.93 94.60 C 149.77 95.44 147.46 94.74 145.27 94.43 Z" />
<path fill="#184e92" d=" M 30.03 95.21 C 30.86 92.86 33.18 91.64 35.12 90.33 C 35.63 91.86 36.13 93.39 36.60 94.93 C 34.72 97.87 33.36 101.19 30.73 103.59 C 29.71 100.95 28.82 97.95 30.03 95.21 Z" />
<path fill="#184e92" d=" M 136.22 103.56 C 133.25 99.86 129.12 95.17 131.83 90.21 C 134.10 91.65 136.74 93.22 137.38 96.06 C 138.27 98.63 137.17 101.20 136.22 103.56 Z" />
<path fill="#184e92" d=" M 13.56 98.37 C 17.82 96.24 23.43 97.29 25.51 101.91 C 21.19 103.63 15.83 102.82 13.56 98.37 Z" />
<path fill="#184e92" d=" M 141.50 101.75 C 143.76 97.23 149.23 96.23 153.56 98.27 C 151.26 102.70 145.81 103.71 141.50 101.75 Z" />
<path fill="#184e92" d=" M 34.64 101.15 C 35.27 99.81 35.80 97.55 37.77 98.11 C 40.36 101.85 39.43 106.95 36.09 109.90 C 34.77 107.22 33.43 104.13 34.64 101.15 Z" />
<path fill="#184e92" d=" M 130.69 109.80 C 127.27 106.27 126.99 100.91 129.95 97.01 C 133.37 100.49 134.02 106.00 130.69 109.80 Z" />
<path fill="#184e92" d=" M 125.30 102.74 C 128.33 106.55 128.11 111.99 124.56 115.41 C 121.59 111.58 121.83 106.16 125.30 102.74 Z" />
<path fill="#184e92" d=" M 42.46 115.47 C 39.13 111.99 38.76 106.51 41.86 102.74 C 43.13 104.66 44.72 106.62 44.79 109.05 C 45.04 111.44 43.59 113.50 42.46 115.47 Z" />
<path fill="#184e92" d=" M 17.84 106.73 C 21.77 103.66 27.18 104.44 30.45 108.09 C 26.54 111.03 20.99 110.54 17.84 106.73 Z" />
<path fill="#184e92" d=" M 136.71 108.03 C 139.90 104.32 145.33 103.69 149.24 106.64 C 147.38 108.06 145.54 109.97 143.04 110.03 C 140.71 110.33 138.70 108.97 136.71 108.03 Z" />
<path fill="#184e92" d=" M 46.99 107.50 C 51.07 110.36 52.11 115.91 49.52 120.14 C 45.63 117.08 44.77 111.82 46.99 107.50 Z" />
<path fill="#184e92" d=" M 119.63 107.51 C 122.94 111.44 121.28 117.02 117.65 120.09 C 114.99 115.97 116.10 110.72 119.63 107.51 Z" />
<path fill="#184e92" d=" M 23.29 114.57 C 26.12 111.05 31.48 110.44 34.96 113.39 C 35.27 115.34 32.93 115.90 31.54 116.51 C 28.62 117.52 25.78 115.92 23.29 114.57 Z" />
<path fill="#184e92" d=" M 52.98 111.55 C 55.43 113.33 57.82 115.68 57.99 118.91 C 57.91 120.36 58.15 122.69 56.35 123.16 C 52.37 120.76 51.40 115.69 52.98 111.55 Z" />
<path fill="#184e92" d=" M 113.40 112.09 C 114.96 112.05 114.64 113.90 114.92 114.94 C 115.36 118.58 112.92 121.86 109.88 123.59 C 108.50 119.47 109.30 114.35 113.40 112.09 Z" />
<path fill="#184e92" d=" M 131.31 113.92 C 134.92 110.59 140.36 110.81 143.90 114.09 C 140.35 117.58 134.79 117.42 131.31 113.92 Z" />
<path fill="#184e92" d=" M 59.38 114.74 C 63.98 116.44 66.35 121.34 65.15 126.07 C 60.40 124.48 58.20 119.45 59.38 114.74 Z" />
<path fill="#184e92" d=" M 102.34 126.20 C 100.48 121.50 103.13 116.32 107.83 114.76 C 108.86 119.44 106.66 124.10 102.34 126.20 Z" />
<path fill="#184e92" d=" M 29.92 120.50 C 32.96 116.93 38.10 116.49 41.90 119.12 C 39.22 122.66 32.84 124.62 29.92 120.50 Z" />
<path fill="#184e92" d=" M 125.27 119.58 C 128.84 115.75 134.71 117.18 137.67 120.99 C 135.59 121.84 133.45 123.11 131.11 122.71 C 128.88 122.32 127.10 120.78 125.27 119.58 Z" />
<path fill="#184e92" d=" M 36.49 126.91 C 39.06 122.86 44.19 121.06 48.58 123.37 C 46.20 127.73 40.85 129.21 36.49 126.91 Z" />
<path fill="#184e92" d=" M 118.53 123.24 C 122.91 121.16 128.14 122.69 130.58 126.88 C 128.47 127.50 126.25 128.44 124.03 127.77 C 121.54 127.27 119.97 125.12 118.53 123.24 Z" />
<path fill="#184e92" d=" M 44.28 132.06 C 46.01 127.47 51.16 125.07 55.80 126.81 C 53.95 131.36 48.90 133.45 44.28 132.06 Z" />
<path fill="#184e92" d=" M 111.30 126.81 C 115.95 124.97 121.09 127.43 122.80 132.05 C 120.39 132.08 117.74 132.72 115.51 131.47 C 113.57 130.49 112.49 128.51 111.30 126.81 Z" />
<path fill="#184e92" d=" M 55.81 130.74 C 57.88 129.13 60.63 129.22 63.09 128.85 C 62.56 133.98 57.34 136.71 52.59 135.93 C 53.44 134.10 54.04 131.93 55.81 130.74 Z" />
<path fill="#184e92" d=" M 103.66 129.56 C 108.46 127.74 113.46 131.10 114.56 135.87 C 109.77 136.75 105.48 133.92 103.66 129.56 Z" />
<path fill="#e11f26" d=" M 43.32 166.54 C 45.07 159.33 45.35 151.82 47.27 144.63 C 50.54 150.42 53.34 156.46 56.34 162.39 C 59.78 156.69 62.29 150.49 65.50 144.66 C 67.86 151.76 67.54 159.43 69.64 166.59 C 70.36 166.93 71.80 167.61 72.53 167.95 C 70.13 167.92 67.73 168.00 65.33 168.05 C 64.98 163.04 64.30 158.05 63.44 153.11 C 60.77 158.14 58.31 163.29 55.69 168.35 C 52.43 163.76 50.48 158.43 47.63 153.60 C 46.86 157.98 46.36 162.40 46.01 166.83 C 46.76 167.11 48.26 167.65 49.00 167.92 C 46.22 167.95 43.43 167.87 40.65 167.84 C 41.32 167.51 42.65 166.87 43.32 166.54 Z" />
<path fill="#e11f26" d=" M 74.90 145.45 C 79.80 146.19 84.95 144.88 89.69 146.49 C 93.48 148.24 93.01 153.75 90.05 156.07 C 88.19 157.95 85.40 157.95 82.96 158.22 C 85.61 157.15 89.32 155.65 88.61 152.05 C 88.85 148.45 85.30 146.68 82.21 146.75 C 82.18 153.46 82.15 160.17 82.23 166.87 C 83.18 167.06 85.10 167.45 86.06 167.65 C 82.55 168.02 79.01 167.97 75.49 167.90 C 76.12 167.44 77.38 166.52 78.02 166.07 C 78.32 160.35 78.16 154.61 78.12 148.89 C 78.58 146.70 76.38 146.19 74.90 145.45 Z" />
<path fill="#e11f26" d=" M 95.48 165.40 C 98.79 158.56 101.27 151.33 104.81 144.59 C 108.10 151.33 110.60 158.42 113.88 165.16 C 114.64 167.62 117.79 168.03 119.78 166.88 C 120.90 159.59 120.01 152.11 120.53 144.74 C 126.81 150.34 132.40 156.65 138.56 162.37 C 138.49 157.19 138.36 152.02 138.23 146.84 C 137.08 146.41 135.93 145.99 134.78 145.57 C 137.57 145.70 140.35 145.69 143.14 145.64 C 142.35 146.06 141.57 146.48 140.79 146.90 C 140.56 154.22 140.76 161.55 140.23 168.86 C 133.95 163.52 128.18 157.63 122.44 151.72 C 122.53 156.14 122.48 160.56 122.78 164.97 C 122.44 167.14 125.00 167.14 126.33 167.83 C 120.93 167.94 115.52 168.01 110.12 167.94 C 109.61 165.44 108.81 163.02 107.95 160.63 C 105.26 160.58 102.56 160.56 99.87 160.57 C 99.04 162.69 98.24 164.82 97.50 166.98 C 98.26 167.21 99.76 167.66 100.51 167.89 C 97.53 167.98 94.55 167.95 91.57 168.02 C 92.95 167.28 94.91 167.09 95.48 165.40 Z" />
<path fill="#e11f26" d=" M 21.99 145.64 C 27.81 145.76 33.63 145.63 39.45 145.75 C 35.11 152.66 30.48 159.38 25.89 166.12 C 29.52 166.07 33.23 166.50 36.82 165.76 C 37.84 164.92 38.67 163.87 39.55 162.89 C 38.99 164.53 39.14 166.62 38.03 167.97 C 32.16 168.26 26.27 167.88 20.39 167.97 C 24.80 160.99 29.49 154.21 34.05 147.34 C 29.64 147.53 23.34 145.83 21.24 151.05 C 21.53 149.25 21.77 147.45 21.99 145.64 Z" />
<path fill="#ffffff" d=" M 103.60 151.39 C 105.15 153.71 106.16 156.32 107.07 158.94 C 104.88 158.98 102.70 159.00 100.51 159.01 C 101.55 156.48 102.55 153.92 103.60 151.39 Z" />
</svg>
